<mxfile host="app.diagrams.net" modified="2023-06-19T14:38:45.331Z" agent="Mozilla/5.0 (Windows NT 10.0; Win64; x64) AppleWebKit/537.36 (KHTML, like Gecko) Chrome/114.0.0.0 Safari/537.36" etag="m5VjW9Kik_8h9VLlLmh9" version="21.5.0" type="github">
  <diagram name="페이지-1" id="jvLIAnnjmnhNz3vEBXLB">
    <mxGraphModel dx="2901" dy="2325" grid="1" gridSize="10" guides="1" tooltips="1" connect="1" arrows="1" fold="1" page="1" pageScale="1" pageWidth="827" pageHeight="1169" math="0" shadow="0">
      <root>
        <mxCell id="0" />
        <mxCell id="1" parent="0" />
        <mxCell id="Znf6lmQyzRthkc_Qs6OS-17" value="SCTP LB POD #1" style="rounded=0;whiteSpace=wrap;html=1;labelPosition=center;verticalLabelPosition=top;align=center;verticalAlign=bottom;" vertex="1" parent="1">
          <mxGeometry x="-30" y="90" width="800" height="510" as="geometry" />
        </mxCell>
        <mxCell id="Znf6lmQyzRthkc_Qs6OS-1" value="External Network&lt;br&gt;Receiver" style="rounded=0;whiteSpace=wrap;html=1;" vertex="1" parent="1">
          <mxGeometry x="140" y="430" width="120" height="60" as="geometry" />
        </mxCell>
        <mxCell id="Znf6lmQyzRthkc_Qs6OS-2" value="SCTP&lt;br&gt;Load Balancing&lt;br&gt;Processor" style="rounded=0;whiteSpace=wrap;html=1;" vertex="1" parent="1">
          <mxGeometry x="350" y="460" width="160" height="100" as="geometry" />
        </mxCell>
        <mxCell id="Znf6lmQyzRthkc_Qs6OS-3" value="Internal Network&lt;br&gt;Receiver" style="rounded=0;whiteSpace=wrap;html=1;" vertex="1" parent="1">
          <mxGeometry x="600" y="430" width="120" height="60" as="geometry" />
        </mxCell>
        <mxCell id="Znf6lmQyzRthkc_Qs6OS-4" value="External Network&lt;br&gt;Sender" style="rounded=0;whiteSpace=wrap;html=1;" vertex="1" parent="1">
          <mxGeometry x="140" y="510" width="120" height="60" as="geometry" />
        </mxCell>
        <mxCell id="Znf6lmQyzRthkc_Qs6OS-5" value="Internal Network&lt;br&gt;Sender" style="rounded=0;whiteSpace=wrap;html=1;" vertex="1" parent="1">
          <mxGeometry x="600" y="510" width="120" height="60" as="geometry" />
        </mxCell>
        <mxCell id="Znf6lmQyzRthkc_Qs6OS-6" value="Backend&amp;nbsp;Table&lt;br&gt;Manager" style="rounded=0;whiteSpace=wrap;html=1;" vertex="1" parent="1">
          <mxGeometry x="600" y="282" width="120" height="60" as="geometry" />
        </mxCell>
        <mxCell id="Znf6lmQyzRthkc_Qs6OS-7" value="Backend&lt;br&gt;Monitor" style="rounded=0;whiteSpace=wrap;html=1;" vertex="1" parent="1">
          <mxGeometry x="600" y="200" width="120" height="60" as="geometry" />
        </mxCell>
        <mxCell id="Znf6lmQyzRthkc_Qs6OS-9" value="Service&lt;br&gt;Manager" style="rounded=0;whiteSpace=wrap;html=1;" vertex="1" parent="1">
          <mxGeometry x="460" y="200" width="120" height="60" as="geometry" />
        </mxCell>
        <mxCell id="Znf6lmQyzRthkc_Qs6OS-10" value="NAT Rule&lt;br&gt;Lookup Table&lt;br&gt;Manager" style="rounded=0;whiteSpace=wrap;html=1;" vertex="1" parent="1">
          <mxGeometry x="320" y="282" width="120" height="60" as="geometry" />
        </mxCell>
        <mxCell id="Znf6lmQyzRthkc_Qs6OS-11" value="Configuration&lt;br&gt;Hot reloading&lt;br&gt;Manager" style="rounded=0;whiteSpace=wrap;html=1;" vertex="1" parent="1">
          <mxGeometry x="460" y="110" width="120" height="60" as="geometry" />
        </mxCell>
        <mxCell id="Znf6lmQyzRthkc_Qs6OS-12" value="NAT Rule&lt;br&gt;Synchronization&lt;br&gt;Manager" style="rounded=0;whiteSpace=wrap;html=1;" vertex="1" parent="1">
          <mxGeometry x="320" y="200" width="120" height="60" as="geometry" />
        </mxCell>
        <mxCell id="Znf6lmQyzRthkc_Qs6OS-13" value="Network Route&lt;br&gt;Manager" style="rounded=0;whiteSpace=wrap;html=1;" vertex="1" parent="1">
          <mxGeometry x="-10" y="282" width="130" height="60" as="geometry" />
        </mxCell>
        <mxCell id="Znf6lmQyzRthkc_Qs6OS-14" value="Network Interface&lt;br&gt;Manager" style="rounded=0;whiteSpace=wrap;html=1;" vertex="1" parent="1">
          <mxGeometry x="150" y="282" width="120" height="60" as="geometry" />
        </mxCell>
        <mxCell id="Znf6lmQyzRthkc_Qs6OS-15" value="High Availability&lt;br&gt;Manager" style="rounded=0;whiteSpace=wrap;html=1;" vertex="1" parent="1">
          <mxGeometry x="150" y="200" width="120" height="60" as="geometry" />
        </mxCell>
        <mxCell id="Znf6lmQyzRthkc_Qs6OS-16" value="Packet Buffer&lt;br&gt;Manager" style="rounded=0;whiteSpace=wrap;html=1;" vertex="1" parent="1">
          <mxGeometry x="375" y="380" width="110" height="60" as="geometry" />
        </mxCell>
        <mxCell id="Znf6lmQyzRthkc_Qs6OS-18" value="LB Upgrade &lt;br&gt;Manager" style="rounded=0;whiteSpace=wrap;html=1;" vertex="1" parent="1">
          <mxGeometry x="-200" width="120" height="120" as="geometry" />
        </mxCell>
        <mxCell id="Znf6lmQyzRthkc_Qs6OS-19" value="SCTP LB POD #0" style="rounded=0;whiteSpace=wrap;html=1;labelPosition=center;verticalLabelPosition=top;align=center;verticalAlign=bottom;" vertex="1" parent="1">
          <mxGeometry x="-30" y="-100" width="800" height="140" as="geometry" />
        </mxCell>
        <mxCell id="Znf6lmQyzRthkc_Qs6OS-20" value="Backend&lt;br&gt;#0" style="rounded=0;whiteSpace=wrap;html=1;" vertex="1" parent="1">
          <mxGeometry x="920" y="270" width="120" height="120" as="geometry" />
        </mxCell>
        <mxCell id="Znf6lmQyzRthkc_Qs6OS-21" value="Backend&lt;br&gt;#1" style="rounded=0;whiteSpace=wrap;html=1;" vertex="1" parent="1">
          <mxGeometry x="940" y="290" width="120" height="120" as="geometry" />
        </mxCell>
        <mxCell id="Znf6lmQyzRthkc_Qs6OS-23" value="Backend&lt;br&gt;#2" style="rounded=0;whiteSpace=wrap;html=1;" vertex="1" parent="1">
          <mxGeometry x="960" y="310" width="120" height="120" as="geometry" />
        </mxCell>
        <mxCell id="Znf6lmQyzRthkc_Qs6OS-24" value="Backend&lt;br&gt;#N" style="rounded=0;whiteSpace=wrap;html=1;" vertex="1" parent="1">
          <mxGeometry x="980" y="330" width="120" height="120" as="geometry" />
        </mxCell>
      </root>
    </mxGraphModel>
  </diagram>
</mxfile>
